<svg id="Layer_2" data-name="Layer 2" xmlns="http://www.w3.org/2000/svg" viewBox="0 0 265.55 49.68"><title>Artboard 2</title><path d="M16.37,37.76V36.25a8.7,8.7,0,0,1-5.88,2.12,9,9,0,0,1-7.76-3.74Q0,30.89,0,24.31a19.77,19.77,0,0,1,.83-6.1A12.57,12.57,0,0,1,3,14a8.42,8.42,0,0,1,3.24-2.44,9.92,9.92,0,0,1,3.87-.78,8.69,8.69,0,0,1,3.77.7A13,13,0,0,1,16.37,13V2.46h9.9v35.3Zm0-15.67a6.31,6.31,0,0,0-1.11-2.43A2.66,2.66,0,0,0,13,18.58a2.46,2.46,0,0,0-2.54,1.68,12.88,12.88,0,0,0-.63,4.43,8.72,8.72,0,0,0,.85,4.4A2.6,2.6,0,0,0,13,30.49a5.65,5.65,0,0,0,1.78-.35,2.72,2.72,0,0,0,1.58-1.6Z"/><path d="M38.22,7.18a5.17,5.17,0,0,1-9.94-2,5.17,5.17,0,1,1,9.94,2ZM28.48,37.77V11.55h10V37.77Z"/><path d="M65.13,41.71a13,13,0,0,1-3,4.57,11.2,11.2,0,0,1-4.23,2.59,15.32,15.32,0,0,1-4.94.8,17.21,17.21,0,0,1-3.69-.4,14.51,14.51,0,0,1-3.39-1.18,10.89,10.89,0,0,1-2.76-2,9.15,9.15,0,0,1-1.91-2.69l7.33-4.62q1.66,3,4.07,3a3.45,3.45,0,0,0,2.61-1.28,6.45,6.45,0,0,0,1.26-4.14,8,8,0,0,1-2.64,1.41,10.51,10.51,0,0,1-3.39.55,9.1,9.1,0,0,1-4.34-1,9.5,9.5,0,0,1-3.26-2.86,13.42,13.42,0,0,1-2-4.44,22.18,22.18,0,0,1-.7-5.78,23.18,23.18,0,0,1,.55-5.15,12,12,0,0,1,1.83-4.27,9.3,9.3,0,0,1,3.32-2.91,10.55,10.55,0,0,1,5-1.08,7.74,7.74,0,0,1,5.68,2.36V11.55h9.74V35A18.07,18.07,0,0,1,65.13,41.71Zm-8.67-20a4.8,4.8,0,0,0-1.61-2.44,3.23,3.23,0,0,0-1.76-.78,2.23,2.23,0,0,0-1.61.58,4.12,4.12,0,0,0-1,1.43,6.56,6.56,0,0,0-.45,1.86q-.1,1-.1,1.86,0,1.06.1,2.21a7.48,7.48,0,0,0,.48,2.11,3.88,3.88,0,0,0,1.08,1.56,2.91,2.91,0,0,0,2,.6,2.27,2.27,0,0,0,1.68-.63,12,12,0,0,0,1.18-1.38Z"/><path d="M78.25,7.18a5.17,5.17,0,0,1-9.94-2A5.18,5.18,0,0,1,75.49.4a5.19,5.19,0,0,1,2.76,6.78ZM68.51,37.77V11.55h10V37.77Z"/><path d="M93.87,18.28V37.77H84.18V18.28H80.41V11.55l3.77,0V9.79A9.73,9.73,0,0,1,84.83,6a6.6,6.6,0,0,1,4.37-4,11.13,11.13,0,0,1,3.21-.45,17.72,17.72,0,0,1,3.14.28,20.8,20.8,0,0,1,3.34.93V9.24a13.2,13.2,0,0,0-1.61-.7,3.66,3.66,0,0,0-1.16-.2,2.34,2.34,0,0,0-1.61.58,2.62,2.62,0,0,0-.65,2v.6h5v6.73Z"/><path d="M118.13,37.77a3.61,3.61,0,0,1-1.68-.38,2.3,2.3,0,0,1-1.08-1.28A10.6,10.6,0,0,1,112,37.92a11.59,11.59,0,0,1-3.64.6A10.35,10.35,0,0,1,105,38a8.36,8.36,0,0,1-2.89-1.66,8,8,0,0,1-2-2.79,9.58,9.58,0,0,1-.75-3.94,8,8,0,0,1,3.47-6.86A11.45,11.45,0,0,1,106.58,21a17.82,17.82,0,0,1,4.52-.55q1,0,2.06.08a13.14,13.14,0,0,1,2.11.33v-.5q0-3-3.62-3a6.4,6.4,0,0,0-2.44.53,7,7,0,0,0-2.39,1.68l-6.33-3a11.31,11.31,0,0,1,4.72-4.24,16.49,16.49,0,0,1,7.43-1.53,20.64,20.64,0,0,1,4.95.55,11.36,11.36,0,0,1,3.84,1.68,7.85,7.85,0,0,1,2.49,2.81,8.52,8.52,0,0,1,.88,4V33.55a1.06,1.06,0,0,0,.48.83,2.1,2.1,0,0,0,1.33.38v3Zm-2.86-11.15a10.27,10.27,0,0,0-2.11-.2,6.29,6.29,0,0,0-3.27.78,2.35,2.35,0,0,0-1.31,2.09,2.28,2.28,0,0,0,.68,1.68,2.41,2.41,0,0,0,1.78.68,5.2,5.2,0,0,0,2.06-.48,7,7,0,0,0,2.16-1.53Z"/><path d="M152.59,34.63a9,9,0,0,1-7.74,3.74A8.58,8.58,0,0,1,139,36.25v1.51h-9.85V2.46H139V13a13,13,0,0,1,2.46-1.51,8.69,8.69,0,0,1,3.77-.7,9.74,9.74,0,0,1,3.84.78A8.49,8.49,0,0,1,152.26,14a12.59,12.59,0,0,1,2.21,4.19,19.77,19.77,0,0,1,.83,6.1Q155.3,30.89,152.59,34.63Zm-7.21-11.92a7.59,7.59,0,0,0-.4-2,3.85,3.85,0,0,0-1-1.53,2.41,2.41,0,0,0-1.73-.6,2.67,2.67,0,0,0-2.23,1.08A5.59,5.59,0,0,0,139,22.09v6.45a2.71,2.71,0,0,0,1.58,1.6,5.54,5.54,0,0,0,1.73.35,2.39,2.39,0,0,0,1.68-.58,3.7,3.7,0,0,0,1-1.43,7.2,7.2,0,0,0,.43-1.87q.1-1,.1-1.93T145.38,22.71Z"/><path d="M179.49,33.1A7.54,7.54,0,0,1,177.38,36a10,10,0,0,1-3.64,1.91,17.9,17.9,0,0,1-5.22.68,19.51,19.51,0,0,1-3.67-.33,26.62,26.62,0,0,1-3.19-.8,19.27,19.27,0,0,1-2.74-1.1q-1.26-.63-2.36-1.23l3.92-6.43a21.53,21.53,0,0,0,3.94,2.06,11.18,11.18,0,0,0,4.14.8,3.19,3.19,0,0,0,1.76-.38q.55-.38.55-.78,0-.7-1-1.1a20.83,20.83,0,0,0-2.56-.78q-1.53-.38-3.34-.9a12.37,12.37,0,0,1-3.34-1.53A8.76,8.76,0,0,1,158,23.48a7.38,7.38,0,0,1-1-4.09,7.84,7.84,0,0,1,1-4.09,7.88,7.88,0,0,1,2.56-2.64,10.84,10.84,0,0,1,3.62-1.43,19.9,19.9,0,0,1,4.09-.43,23.57,23.57,0,0,1,5.83.68,25,25,0,0,1,5.58,2.24l-4,6.48a34.8,34.8,0,0,0-3.84-1.71,10.53,10.53,0,0,0-3.64-.65,5.37,5.37,0,0,0-1.31.15.77.77,0,0,0-.6.85q0,.5,1,1a19.61,19.61,0,0,0,3.24,1,27.62,27.62,0,0,1,4.55,1.46,10.84,10.84,0,0,1,3,1.83,6.07,6.07,0,0,1,1.63,2.36,8.58,8.58,0,0,1,.5,3A9.45,9.45,0,0,1,179.49,33.1Z"/><path d="M198.25,37.77v-15a4.47,4.47,0,0,0-.73-2.79,2.78,2.78,0,0,0-2.33-.93q-3.17,0-3.16,3.77V37.77h-9.84V2.46H192V13.31a9.86,9.86,0,0,1,7.13-2.66,10.06,10.06,0,0,1,4.24.8,7.62,7.62,0,0,1,2.84,2.21A8.73,8.73,0,0,1,207.77,17a17.52,17.52,0,0,1,.48,4.19V37.77Z"/><path d="M236.72,30.46a12.36,12.36,0,0,1-2.84,4.4,12.23,12.23,0,0,1-4.42,2.76,16.68,16.68,0,0,1-5.8,1,15.66,15.66,0,0,1-5.88-1,11.63,11.63,0,0,1-6.91-7.23,16.82,16.82,0,0,1-.88-5.55,16.66,16.66,0,0,1,1-5.8,12.22,12.22,0,0,1,2.76-4.42,12.09,12.09,0,0,1,4.39-2.81,16.27,16.27,0,0,1,5.8-1,16.07,16.07,0,0,1,5.78,1,11.76,11.76,0,0,1,7.08,7.18,16.52,16.52,0,0,1,1,5.75A15.9,15.9,0,0,1,236.72,30.46Zm-9.17-8.06a6.1,6.1,0,0,0-.55-2A4,4,0,0,0,225.82,19a3.22,3.22,0,0,0-2-.58,3.12,3.12,0,0,0-3,1.76,10,10,0,0,0-.88,4.47,14,14,0,0,0,.2,2.41,7,7,0,0,0,.65,2A3.59,3.59,0,0,0,222,30.44a3.27,3.27,0,0,0,1.86.5,3.12,3.12,0,0,0,3-1.66,10,10,0,0,0,.9-4.72A19.29,19.29,0,0,0,227.56,22.4Z"/><path d="M263,34.81q-2.59,3.67-7.76,3.67a8.62,8.62,0,0,1-3.72-.68,11.21,11.21,0,0,1-2.26-1.38v11.4l-9.74-.05V11.57h9.74v1.66a10.16,10.16,0,0,1,2.86-1.74,10.45,10.45,0,0,1,7.76.47A9.09,9.09,0,0,1,263,14.77a12.75,12.75,0,0,1,1.91,4.34,23.53,23.53,0,0,1,.63,5.65Q265.55,31.14,263,34.81Zm-7.38-12.3a7,7,0,0,0-.48-2,3,3,0,0,0-1-1.28,2.54,2.54,0,0,0-1.56-.45,2.75,2.75,0,0,0-2.33,1,5.6,5.6,0,0,0-1,2.48v6.6a2.89,2.89,0,0,0,1.63,1.55,5.49,5.49,0,0,0,1.68.35,2.39,2.39,0,0,0,1.68-.58,3.7,3.7,0,0,0,1-1.43,7.16,7.16,0,0,0,.43-1.87q.1-1,.1-1.93A23.14,23.14,0,0,0,255.58,22.51Z"/></svg>