<svg xmlns="http://www.w3.org/2000/svg" viewBox="2629 435 30 30"><defs><style>.a{fill:#fff;}.b{fill:none;}</style></defs><g transform="translate(2466 77)"><g transform="translate(163 358)"><circle class="a" cx="15" cy="15" r="15" transform="translate(0 0)"/></g><g transform="translate(168.4 367.6)"><path class="b" d="M17.7,2H3.4l7.183,5.94Z" transform="translate(-1.052 -0.619)"/><path class="b" d="M10.564,9.661a.507.507,0,0,1-.414.138.74.74,0,0,1-.414-.138L2,3.307v7.321H18.437V3.1Z" transform="translate(-0.619 -0.959)"/><path d="M0,0V11.05H19.2V0ZM16.645,1.381,9.531,7.321,2.348,1.381ZM1.381,9.669V2.348L9.047,8.7a.507.507,0,0,0,.414.138A.74.74,0,0,0,9.876,8.7L17.75,2.141V9.669Z"/></g></g></svg>