<svg xmlns="http://www.w3.org/2000/svg" viewBox="2628.605 359 30 30"><defs><style>.a{fill:#fff;}</style></defs><g transform="translate(2465.605 100)"><g transform="translate(163 259)"><circle class="a" cx="15" cy="15" r="15"/></g><path d="M16.05,3.3H4.95V6H0S0,0,4.95,0h11.1C21,0,21,6,21,6H16.05Z" transform="translate(167.8 265)"/><g transform="translate(172.6 271.525)"><circle cx="1.575" cy="1.575" r="1.575"/><circle cx="1.575" cy="1.575" r="1.575" transform="translate(0 3.9)"/><circle cx="1.575" cy="1.575" r="1.575" transform="translate(0 7.875)"/><circle cx="1.575" cy="1.575" r="1.575" transform="translate(3.9)"/><circle cx="1.575" cy="1.575" r="1.575" transform="translate(3.9 3.9)"/><circle cx="1.575" cy="1.575" r="1.575" transform="translate(3.9 7.875)"/><circle cx="1.575" cy="1.575" r="1.575" transform="translate(7.875)"/><circle cx="1.575" cy="1.575" r="1.575" transform="translate(7.875 3.9)"/><circle cx="1.575" cy="1.575" r="1.575" transform="translate(7.875 7.875)"/></g></g></svg>