<svg xmlns="http://www.w3.org/2000/svg" viewBox="1870 85.989 22.181 18.011"><defs><style>.a{fill:#fff;}</style></defs><g transform="translate(1870 85.989)"><path class="a" d="M5.678,31.244a2.357,2.357,0,0,1-1.53.555,2.417,2.417,0,0,1-.555-4.769A6.482,6.482,0,0,1,3.5,25.9c0-.2.022-.4.022-.6a4.149,4.149,0,0,0-1.153,7.852l1.752,3.993,1.752-3.993a3.983,3.983,0,0,0,1.109-.776A10.644,10.644,0,0,1,5.678,31.244Z" transform="translate(0 -19.688)"/><path class="a" d="M72.049,25.4a5.4,5.4,0,0,1,.022.6,10.092,10.092,0,0,1-.089,1.153,2.413,2.413,0,1,1-2.129,4.214A8.072,8.072,0,0,1,68.5,32.453a3.779,3.779,0,0,0,1.109.754L71.361,37.2l1.752-3.993A4.129,4.129,0,0,0,72.049,25.4Z" transform="translate(-53.306 -19.766)"/><path class="a" d="M34.521,5.634a6.227,6.227,0,0,0-12.4.022,5.014,5.014,0,0,0-.022.577,5.557,5.557,0,0,0,.133,1.22,6.233,6.233,0,0,0,1.442,2.883,7.007,7.007,0,0,0,1.375,1.176c.177.111.377.222.555.311l2.728,6.188,2.728-6.188c.177-.089.333-.177.51-.288a6.33,6.33,0,0,0,2.861-4.1,5.507,5.507,0,0,0,.133-1.2C34.543,6.033,34.543,5.834,34.521,5.634ZM28.333,9.515a3.283,3.283,0,1,1,3.283-3.283A3.29,3.29,0,0,1,28.333,9.515Z" transform="translate(-17.198)"/></g></svg>