<svg xmlns="http://www.w3.org/2000/svg" viewBox="-383 578.047 15 12.209"><defs><style>.a{fill:#fff;}</style></defs><path class="a" d="M5.407,952.362l-1.221,2.093H1.57A1.566,1.566,0,0,0,0,956.025V963a1.566,1.566,0,0,0,1.57,1.57H13.43A1.566,1.566,0,0,0,15,963v-6.977a1.566,1.566,0,0,0-1.57-1.57H10.814l-1.221-2.093ZM7.5,955.5a4.012,4.012,0,1,1-4.012,4.012A4.017,4.017,0,0,1,7.5,955.5Zm5.407.523a.523.523,0,1,1-.523.523A.523.523,0,0,1,12.907,956.025ZM7.5,956.2a3.314,3.314,0,1,0,3.314,3.314A3.309,3.309,0,0,0,7.5,956.2Zm0,1.4a1.919,1.919,0,1,1-1.919,1.919A1.919,1.919,0,0,1,7.5,957.595Z" transform="translate(-383 -374.315)"/></svg>