<svg xmlns="http://www.w3.org/2000/svg" xmlns:xlink="http://www.w3.org/1999/xlink" viewBox="2502 283.868 54.034 54.033"><defs><style>.a{fill:#fff;}.b{filter:url(#a);}</style><filter id="a" x="2502" y="283.868" width="54.034" height="54.033" filterUnits="userSpaceOnUse"><feOffset dx="1" dy="1" input="SourceAlpha"/><feGaussianBlur stdDeviation="1" result="b"/><feFlood flood-opacity="0.251"/><feComposite operator="in" in2="b"/><feComposite in="SourceGraphic"/></filter></defs><g transform="translate(2463 128)"><circle cx="22" cy="22" r="22" transform="translate(43 160)"/><g transform="translate(41 157.868)"><g class="b" transform="matrix(1, 0, 0, 1, -2504, -285.87)"><path class="a" d="M24.016,0A24.016,24.016,0,1,0,48.033,24.016,23.985,23.985,0,0,0,24.016,0Zm4.755,23.041V20.725c0-.975.244-1.585,1.707-1.585H32.55V15.848c-.61,0-1.585-.122-2.926-.122-2.682,0-4.755,1.585-4.755,4.633v2.56H21.7v3.9h3.17v8.9H13.9c-.731,0-1.1-.731-1.1-1.463V13.532c0-.731.366-1.341,1.1-1.341H34.623c.731,0,1.1.61,1.1,1.341V34.257c0,.731-.366,1.463-1.1,1.463H28.649v-8.9H31.7l.488-3.779Z" transform="translate(2504 285.87)"/></g></g></g></svg>