<svg xmlns="http://www.w3.org/2000/svg" xmlns:xlink="http://www.w3.org/1999/xlink" viewBox="2579 283.868 54.034 54.033"><defs><style>.a{fill:#fff;}.b{filter:url(#a);}</style><filter id="a" x="2579" y="283.868" width="54.034" height="54.033" filterUnits="userSpaceOnUse"><feOffset dx="1" dy="1" input="SourceAlpha"/><feGaussianBlur stdDeviation="1" result="b"/><feFlood flood-opacity="0.251"/><feComposite operator="in" in2="b"/><feComposite in="SourceGraphic"/></filter></defs><g transform="translate(2374.689 128)"><circle cx="22" cy="22" r="22" transform="translate(209 160)"/><g transform="translate(206.311 157.868)"><circle class="a" cx="4.511" cy="4.511" r="4.511" transform="translate(20.115 19.506)"/><path class="a" d="M160.431,16.179h2.316a.787.787,0,0,0,.732-.731V13.131a.787.787,0,0,0-.732-.731h-2.316a.787.787,0,0,0-.731.731v2.316A.7.7,0,0,0,160.431,16.179Z" transform="translate(-130.32 2.717)"/><path class="a" d="M166.221,29.56c.366,0,.488-.366.488-.853V18.1h-2.682c.488,0,.61,1.463.61,2.072a7.072,7.072,0,0,1-14.142,0c0-.61.122-2.072.488-2.072H148.3V28.706c0,.366.122.853.488.853Z" transform="translate(-132.817 3.966)"/><g class="b" transform="matrix(1, 0, 0, 1, -2581, -285.87)"><path class="a" d="M159.616,0a24.016,24.016,0,1,0,24.016,24.016A23.985,23.985,0,0,0,159.616,0ZM148.523,32.916v-17.8a2.712,2.712,0,0,1,2.8-2.56H169a2.741,2.741,0,0,1,2.926,2.56v17.8A2.748,2.748,0,0,1,169,35.476H151.326A2.8,2.8,0,0,1,148.523,32.916Z" transform="translate(2445.4 285.87)"/></g></g></g></svg>