<svg xmlns="http://www.w3.org/2000/svg" xmlns:xlink="http://www.w3.org/1999/xlink" viewBox="2733 283.868 54.034 54.033"><defs><style>.a{fill:#fff;}.b{filter:url(#a);}</style><filter id="a" x="2733" y="283.868" width="54.034" height="54.033" filterUnits="userSpaceOnUse"><feOffset dx="1" dy="1" input="SourceAlpha"/><feGaussianBlur stdDeviation="1" result="b"/><feFlood flood-opacity="0.251"/><feComposite operator="in" in2="b"/><feComposite in="SourceGraphic"/></filter></defs><g transform="translate(2611.345 128)"><circle cx="22" cy="22" r="22" transform="translate(126 160)"/><g transform="translate(123.655 157.868)"><g class="b" transform="matrix(1, 0, 0, 1, -2735, -285.87)"><path class="a" d="M91.816,0a24.016,24.016,0,1,0,24.016,24.016A23.985,23.985,0,0,0,91.816,0ZM83.4,13.654a2.685,2.685,0,1,1,0,5.364h0a2.558,2.558,0,0,1-2.682-2.682A2.493,2.493,0,0,1,83.4,13.654Zm2.438,6.583V34.866H81.454V20.237Zm7.68,5.608a3.758,3.758,0,0,0-.122,1.219v7.68H88.525s.122-13.288,0-14.629H93.4v2.438a5.587,5.587,0,0,1,4.755-2.438c3.292,0,5.974,2.072,5.974,6.583v7.924H98.521V27.186c0-1.951-.61-3.292-2.438-3.292A3.386,3.386,0,0,0,93.523,25.845Z" transform="translate(2667.2 285.87)"/></g></g></g></svg>