<svg xmlns="http://www.w3.org/2000/svg" viewBox="2629 507 30 30"><defs><style>.a{fill:#fff;}</style></defs><g transform="translate(2466 49)"><g transform="translate(163 458)"><circle class="a" cx="15" cy="15" r="15" transform="translate(0 0)"/></g><g transform="translate(172.6 464)"><path d="M5.478,952.4A5.469,5.469,0,0,0,0,957.878a7.63,7.63,0,0,0,.391,2.152L5.478,970.4l5.087-10.37a7.63,7.63,0,0,0,.391-2.152A5.469,5.469,0,0,0,5.478,952.4Zm0,2.641a2.837,2.837,0,1,1-2.837,2.837A2.839,2.839,0,0,1,5.478,955.041Z" transform="translate(0 -952.4)"/></g></g></svg>