<svg xmlns="http://www.w3.org/2000/svg" xmlns:xlink="http://www.w3.org/1999/xlink" viewBox="2656 283.868 54.034 54.033"><defs><style>.a{fill:#fff;}.b{filter:url(#a);}</style><filter id="a" x="2656" y="283.868" width="54.034" height="54.033" filterUnits="userSpaceOnUse"><feOffset dx="1" dy="1" input="SourceAlpha"/><feGaussianBlur stdDeviation="1" result="b"/><feFlood flood-opacity="0.251"/><feComposite operator="in" in2="b"/><feComposite in="SourceGraphic"/></filter></defs><g transform="translate(2369.034 128)"><circle cx="22" cy="22" r="22" transform="translate(291 160)"/><g transform="translate(288.966 157.868)"><g class="b" transform="matrix(1, 0, 0, 1, -2658, -285.87)"><path class="a" d="M227.416,0a24.016,24.016,0,1,0,24.016,24.016A23.985,23.985,0,0,0,227.416,0Zm-1.1,34.013c-1.341,0-2.438-1.219-3.414-3.657-.61-2.316-1.219-4.511-1.829-6.827q-1.1-3.657-2.194-3.657a9.92,9.92,0,0,0-1.829,1.1l-1.1-1.341c1.1-.975,2.316-1.951,3.414-2.926a8.419,8.419,0,0,1,3.413-2.072q2.743-.183,3.292,3.657a53.046,53.046,0,0,0,.975,5.242c.488,2.316,1.1,3.535,1.707,3.535.488,0,1.219-.731,2.194-2.316a9.806,9.806,0,0,0,1.585-3.413c.122-1.341-.366-1.951-1.585-1.951a4.3,4.3,0,0,0-1.707.366c1.1-3.657,3.292-5.486,6.583-5.364,2.438.122,3.535,1.585,3.413,4.633q-.183,3.292-4.755,9.143C231.2,32.062,228.514,34.013,226.319,34.013Z" transform="translate(2454.6 285.87)"/></g></g></g></svg>